<?xml version="1.0" encoding="UTF-8" standalone="no"?>
<!DOCTYPE svg PUBLIC "-//W3C//DTD SVG 1.1//EN" "http://www.w3.org/Graphics/SVG/1.1/DTD/svg11.dtd">
<svg width="100%" height="100%" viewBox="0 0 616 283" version="1.1" xmlns="http://www.w3.org/2000/svg" xmlns:xlink="http://www.w3.org/1999/xlink" xml:space="preserve" xmlns:serif="http://www.serif.com/" style="fill-rule:evenodd;clip-rule:evenodd;stroke-linecap:round;stroke-linejoin:round;stroke-miterlimit:1.5;">
    <g>
        <g transform="matrix(1,0,0,1.00003,-201.115,-153.967)">
            <path d="M325.108,158.576L433.477,386.681L325.108,348.662L325.108,158.576Z" style="stroke:black;stroke-width:0.26px;"/>
        </g>
        <g transform="matrix(1,0,0,1.00003,-201.115,-153.967)">
            <path d="M319.623,356.971L433.088,396.557L319.034,433.203L206.158,397.927L319.623,356.971Z" style="stroke:black;stroke-width:0.26px;"/>
        </g>
        <g transform="matrix(1,0,0,1.00003,-201.115,-153.967)">
            <path d="M313.942,158.62L314.136,349.687L204.591,387.508L313.942,158.62Z" style="fill:rgb(115,115,115);stroke:rgb(128,128,128);stroke-width:0.26px;"/>
        </g>
        <g transform="matrix(1,0,0,1.59056,245.266,232.027)">
            <path d="M355.245,-18.249L355.245,-12.016L357.672,-12.016C359.42,-12.016 360.589,-12.131 361.178,-12.361C361.767,-12.591 362.229,-12.95 362.564,-13.44C362.898,-13.929 363.066,-14.498 363.066,-15.148C363.066,-15.947 362.831,-16.606 362.362,-17.125C361.892,-17.645 361.298,-17.969 360.579,-18.099C360.049,-18.199 358.985,-18.249 357.387,-18.249L355.245,-18.249ZM287.14,-18.249L287.14,-12.675L290.421,-12.675C292.549,-12.675 293.877,-12.765 294.406,-12.945C294.936,-13.125 295.35,-13.435 295.65,-13.874C295.95,-14.314 296.1,-14.863 296.1,-15.522C296.1,-16.261 295.902,-16.858 295.508,-17.313C295.113,-17.767 294.556,-18.054 293.837,-18.174C293.478,-18.224 292.399,-18.249 290.601,-18.249L287.14,-18.249ZM114.692,-18.249L114.692,-12.675L117.973,-12.675C120.101,-12.675 121.429,-12.765 121.959,-12.945C122.488,-13.125 122.903,-13.435 123.202,-13.874C123.502,-14.314 123.652,-14.863 123.652,-15.522C123.652,-16.261 123.455,-16.858 123.06,-17.313C122.666,-17.767 122.109,-18.054 121.389,-18.174C121.03,-18.224 119.951,-18.249 118.153,-18.249L114.692,-18.249ZM314.552,-18.549C312.724,-18.549 311.25,-17.922 310.132,-16.668C309.013,-15.415 308.454,-13.524 308.454,-10.997C308.454,-8.51 309.028,-6.625 310.177,-5.341C311.325,-4.058 312.784,-3.416 314.552,-3.416C316.32,-3.416 317.77,-4.053 318.904,-5.326C320.038,-6.6 320.605,-8.51 320.605,-11.057C320.605,-13.574 320.053,-15.452 318.949,-16.691C317.845,-17.929 316.38,-18.549 314.552,-18.549ZM213.906,-18.549C212.078,-18.549 210.605,-17.922 209.486,-16.668C208.367,-15.415 207.808,-13.524 207.808,-10.997C207.808,-8.51 208.382,-6.625 209.531,-5.341C210.68,-4.058 212.138,-3.416 213.906,-3.416C215.674,-3.416 217.125,-4.053 218.259,-5.326C219.392,-6.6 219.959,-8.51 219.959,-11.057C219.959,-13.574 219.407,-15.452 218.303,-16.691C217.2,-17.929 215.734,-18.549 213.906,-18.549ZM34.094,-18.549C32.266,-18.549 30.793,-17.922 29.674,-16.668C28.555,-15.415 27.996,-13.524 27.996,-10.997C27.996,-8.51 28.571,-6.625 29.719,-5.341C30.868,-4.058 32.326,-3.416 34.094,-3.416C35.862,-3.416 37.313,-4.053 38.447,-5.326C39.58,-6.6 40.147,-8.51 40.147,-11.057C40.147,-13.574 39.595,-15.452 38.492,-16.691C37.388,-17.929 35.922,-18.549 34.094,-18.549ZM350.81,-21.965L357.927,-21.965C360.624,-21.965 362.382,-21.855 363.201,-21.635C364.459,-21.305 365.513,-20.589 366.362,-19.485C367.211,-18.381 367.635,-16.956 367.635,-15.208C367.635,-13.859 367.391,-12.725 366.901,-11.806C366.412,-10.887 365.79,-10.166 365.036,-9.641C364.282,-9.117 363.515,-8.77 362.736,-8.6C361.677,-8.39 360.144,-8.285 358.136,-8.285L355.245,-8.285L355.245,0L350.81,0L350.81,-21.965ZM328.687,-21.965L333.122,-21.965L333.122,-10.068C333.122,-8.181 333.177,-6.957 333.287,-6.398C333.476,-5.499 333.928,-4.777 334.643,-4.233C335.357,-3.688 336.333,-3.416 337.572,-3.416C338.83,-3.416 339.779,-3.673 340.418,-4.188C341.058,-4.702 341.442,-5.334 341.572,-6.083C341.702,-6.832 341.767,-8.076 341.767,-9.814L341.767,-21.965L346.202,-21.965L346.202,-10.428C346.202,-7.791 346.082,-5.928 345.842,-4.839C345.602,-3.751 345.16,-2.832 344.516,-2.083C343.872,-1.333 343.01,-0.737 341.932,-0.292C340.853,0.152 339.445,0.375 337.707,0.375C335.609,0.375 334.018,0.132 332.935,-0.352C331.851,-0.837 330.994,-1.466 330.365,-2.24C329.736,-3.014 329.321,-3.826 329.121,-4.675C328.832,-5.933 328.687,-7.791 328.687,-10.248L328.687,-21.965ZM282.705,-21.965L292.039,-21.965C294.386,-21.965 296.092,-21.767 297.156,-21.373C298.22,-20.978 299.071,-20.277 299.71,-19.268C300.35,-18.259 300.669,-17.105 300.669,-15.807C300.669,-14.159 300.185,-12.798 299.216,-11.724C298.247,-10.65 296.799,-9.974 294.871,-9.694C295.83,-9.134 296.621,-8.52 297.246,-7.851C297.87,-7.182 298.711,-5.993 299.77,-4.285L302.452,0L297.148,0L293.942,-4.779C292.803,-6.488 292.024,-7.564 291.605,-8.008C291.185,-8.453 290.741,-8.757 290.271,-8.922C289.802,-9.087 289.058,-9.169 288.039,-9.169L287.14,-9.169L287.14,0L282.705,0L282.705,-21.965ZM228.116,-21.965L232.431,-21.965L241.421,-7.297L241.421,-21.965L245.541,-21.965L245.541,0L241.091,0L232.237,-14.323L232.237,0L228.116,0L228.116,-21.965ZM196.024,-21.965L200.459,-21.965L200.459,0L196.024,0L196.024,-21.965ZM174.948,-21.965L192.403,-21.965L192.403,-18.249L185.9,-18.249L185.9,0L181.465,0L181.465,-18.249L174.948,-18.249L174.948,-21.965ZM132.305,-21.965L136.74,-21.965L136.74,-10.068C136.74,-8.181 136.795,-6.957 136.905,-6.398C137.095,-5.499 137.547,-4.777 138.261,-4.233C138.975,-3.688 139.951,-3.416 141.19,-3.416C142.449,-3.416 143.398,-3.673 144.037,-4.188C144.676,-4.702 145.061,-5.334 145.19,-6.083C145.32,-6.832 145.385,-8.076 145.385,-9.814L145.385,-21.965L149.82,-21.965L149.82,-10.428C149.82,-7.791 149.7,-5.928 149.461,-4.839C149.221,-3.751 148.779,-2.832 148.135,-2.083C147.49,-1.333 146.629,-0.737 145.55,-0.292C144.471,0.152 143.063,0.375 141.325,0.375C139.227,0.375 137.637,0.132 136.553,-0.352C135.469,-0.837 134.613,-1.466 133.983,-2.24C133.354,-3.014 132.94,-3.826 132.74,-4.675C132.45,-5.933 132.305,-7.791 132.305,-10.248L132.305,-21.965ZM110.257,-21.965L119.592,-21.965C121.939,-21.965 123.644,-21.767 124.708,-21.373C125.772,-20.978 126.623,-20.277 127.263,-19.268C127.902,-18.259 128.222,-17.105 128.222,-15.807C128.222,-14.159 127.737,-12.798 126.768,-11.724C125.799,-10.65 124.351,-9.974 122.423,-9.694C123.382,-9.134 124.174,-8.52 124.798,-7.851C125.422,-7.182 126.264,-5.993 127.323,-4.285L130.005,0L124.701,0L121.494,-4.779C120.356,-6.488 119.577,-7.564 119.157,-8.008C118.738,-8.453 118.293,-8.757 117.824,-8.922C117.354,-9.087 116.61,-9.169 115.591,-9.169L114.692,-9.169L114.692,0L110.257,0L110.257,-21.965ZM89.031,-21.965L106.486,-21.965L106.486,-18.249L99.983,-18.249L99.983,0L95.549,0L95.549,-18.249L89.031,-18.249L89.031,-21.965ZM48.304,-21.965L52.619,-21.965L61.609,-7.297L61.609,-21.965L65.729,-21.965L65.729,0L61.279,0L52.425,-14.323L52.425,0L48.304,0L48.304,-21.965ZM314.507,-22.339C317.743,-22.339 320.332,-21.335 322.275,-19.328C324.218,-17.32 325.189,-14.528 325.189,-10.952C325.189,-7.406 324.225,-4.632 322.298,-2.629C320.37,-0.627 317.793,0.375 314.567,0.375C311.3,0.375 308.703,-0.622 306.776,-2.614C304.848,-4.607 303.884,-7.352 303.884,-10.848C303.884,-13.085 304.219,-14.963 304.888,-16.481C305.387,-17.6 306.069,-18.604 306.933,-19.493C307.797,-20.382 308.743,-21.041 309.772,-21.47C311.141,-22.05 312.719,-22.339 314.507,-22.339ZM268.899,-22.339C271.626,-22.339 273.756,-21.767 275.289,-20.624C276.823,-19.48 277.809,-17.899 278.248,-15.882L273.844,-15.058C273.534,-16.136 272.952,-16.988 272.098,-17.612C271.244,-18.237 270.178,-18.549 268.899,-18.549C266.962,-18.549 265.421,-17.934 264.277,-16.706C263.133,-15.477 262.562,-13.654 262.562,-11.237C262.562,-8.63 263.141,-6.675 264.3,-5.371C265.458,-4.068 266.977,-3.416 268.854,-3.416C269.783,-3.416 270.715,-3.598 271.649,-3.963C272.583,-4.328 273.384,-4.77 274.053,-5.289L274.053,-8.076L268.974,-8.076L268.974,-11.776L278.533,-11.776L278.533,-3.027C277.604,-2.128 276.258,-1.336 274.495,-0.652C272.732,0.032 270.947,0.375 269.139,0.375C266.842,0.375 264.839,-0.107 263.131,-1.071C261.423,-2.035 260.139,-3.414 259.28,-5.207C258.421,-6.999 257.992,-8.95 257.992,-11.057C257.992,-13.345 258.471,-15.377 259.43,-17.155C260.389,-18.933 261.792,-20.297 263.64,-21.246C265.049,-21.975 266.802,-22.339 268.899,-22.339ZM213.861,-22.339C217.097,-22.339 219.687,-21.335 221.63,-19.328C223.572,-17.32 224.544,-14.528 224.544,-10.952C224.544,-7.406 223.58,-4.632 221.652,-2.629C219.724,-0.627 217.147,0.375 213.921,0.375C210.655,0.375 208.058,-0.622 206.13,-2.614C204.202,-4.607 203.238,-7.352 203.238,-10.848C203.238,-13.085 203.573,-14.963 204.242,-16.481C204.742,-17.6 205.423,-18.604 206.287,-19.493C207.151,-20.382 208.098,-21.041 209.127,-21.47C210.495,-22.05 212.073,-22.339 213.861,-22.339ZM163.927,-22.339C166.614,-22.339 168.797,-21.545 170.475,-19.957C171.474,-19.018 172.223,-17.67 172.722,-15.912L168.332,-14.863C168.072,-16.002 167.531,-16.901 166.707,-17.56C165.882,-18.219 164.881,-18.549 163.703,-18.549C162.074,-18.549 160.753,-17.964 159.74,-16.796C158.726,-15.627 158.219,-13.734 158.219,-11.117C158.219,-8.34 158.718,-6.363 159.717,-5.184C160.716,-4.005 162.014,-3.416 163.613,-3.416C164.791,-3.416 165.805,-3.791 166.654,-4.54C167.503,-5.289 168.112,-6.468 168.482,-8.076L172.782,-6.712C172.123,-4.315 171.027,-2.535 169.493,-1.371C167.96,-0.207 166.015,0.375 163.658,0.375C160.741,0.375 158.344,-0.622 156.466,-2.614C154.588,-4.607 153.649,-7.332 153.649,-10.788C153.649,-14.443 154.593,-17.283 156.481,-19.305C158.369,-21.328 160.851,-22.339 163.927,-22.339ZM78.039,-22.339C80.795,-22.339 82.87,-21.735 84.264,-20.526C85.657,-19.318 86.389,-17.705 86.459,-15.687L82.024,-15.492C81.834,-16.621 81.427,-17.432 80.803,-17.927C80.179,-18.421 79.242,-18.669 77.994,-18.669C76.705,-18.669 75.696,-18.404 74.967,-17.874C74.498,-17.535 74.263,-17.08 74.263,-16.511C74.263,-15.992 74.483,-15.547 74.922,-15.178C75.481,-14.708 76.84,-14.219 78.997,-13.709C81.155,-13.2 82.751,-12.673 83.784,-12.129C84.818,-11.584 85.627,-10.84 86.212,-9.896C86.796,-8.952 87.088,-7.786 87.088,-6.398C87.088,-5.139 86.738,-3.96 86.039,-2.862C85.34,-1.763 84.351,-0.946 83.073,-0.412C81.794,0.122 80.201,0.39 78.293,0.39C75.516,0.39 73.384,-0.252 71.896,-1.536C70.407,-2.819 69.518,-4.69 69.229,-7.147L73.544,-7.566C73.803,-6.118 74.33,-5.054 75.124,-4.375C75.918,-3.696 76.99,-3.356 78.338,-3.356C79.766,-3.356 80.843,-3.658 81.567,-4.263C82.291,-4.867 82.653,-5.574 82.653,-6.383C82.653,-6.902 82.501,-7.344 82.196,-7.709C81.891,-8.073 81.36,-8.39 80.601,-8.66C80.081,-8.84 78.897,-9.159 77.05,-9.619C74.672,-10.208 73.004,-10.932 72.045,-11.791C70.697,-13 70.023,-14.473 70.023,-16.211C70.023,-17.33 70.34,-18.376 70.974,-19.35C71.608,-20.324 72.522,-21.066 73.716,-21.575C74.91,-22.084 76.35,-22.339 78.039,-22.339ZM34.049,-22.339C37.285,-22.339 39.875,-21.335 41.818,-19.328C43.761,-17.32 44.732,-14.528 44.732,-10.952C44.732,-7.406 43.768,-4.632 41.84,-2.629C39.912,-0.627 37.335,0.375 34.109,0.375C30.843,0.375 28.246,-0.622 26.318,-2.614C24.39,-4.607 23.426,-7.352 23.426,-10.848C23.426,-13.085 23.761,-14.963 24.43,-16.481C24.93,-17.6 25.611,-18.604 26.475,-19.493C27.339,-20.382 28.286,-21.041 29.315,-21.47C30.683,-22.05 32.261,-22.339 34.049,-22.339ZM11.732,-22.339C14.418,-22.339 16.601,-21.545 18.279,-19.957C19.278,-19.018 20.027,-17.67 20.526,-15.912L16.136,-14.863C15.877,-16.002 15.335,-16.901 14.511,-17.56C13.687,-18.219 12.685,-18.549 11.507,-18.549C9.879,-18.549 8.558,-17.964 7.544,-16.796C6.53,-15.627 6.023,-13.734 6.023,-11.117C6.023,-8.34 6.522,-6.363 7.521,-5.184C8.52,-4.005 9.819,-3.416 11.417,-3.416C12.596,-3.416 13.609,-3.791 14.458,-4.54C15.307,-5.289 15.917,-6.468 16.286,-8.076L20.586,-6.712C19.927,-4.315 18.831,-2.535 17.298,-1.371C15.764,-0.207 13.819,0.375 11.462,0.375C8.545,0.375 6.148,-0.622 4.27,-2.614C2.392,-4.607 1.453,-7.332 1.453,-10.788C1.453,-14.443 2.397,-17.283 4.285,-19.305C6.173,-21.328 8.655,-22.339 11.732,-22.339Z" style="fill:rgb(115,115,115);stroke:rgb(128,128,128);stroke-width:0.19px;stroke-linecap:butt;stroke-miterlimit:2;"/>
        </g>
        <g transform="matrix(2.81354,0,0,2.04061,198.383,183)">
            <text x="0px" y="0px" style="font-family:'Arial-BoldMT', 'Arial', sans-serif;font-weight:700;font-size:50px;">W</text>
            <g transform="matrix(1,0,0,1,44.43,0)">
                <text x="0px" y="0px" style="font-family:'Arial-BoldMT', 'Arial', sans-serif;font-weight:700;font-size:50px;">A</text>
            </g>
            <g transform="matrix(1,0,0,1,80.54,0)">
                <text x="0px" y="0px" style="font-family:'Arial-BoldMT', 'Arial', sans-serif;font-weight:700;font-size:50px;">K</text>
            </g>
            <g transform="matrix(1,0,0,1,116.54,0)">
                <text x="0px" y="0px" style="font-family:'Arial-BoldMT', 'Arial', sans-serif;font-weight:700;font-size:50px;">E</text>
            </g>
        </g>
    </g>
</svg>
