<svg width="616" height="283" xmlns="http://www.w3.org/2000/svg" xmlns:xlink="http://www.w3.org/1999/xlink" overflow="hidden"><defs><clipPath id="clip0"><rect x="0" y="0" width="616" height="283"/></clipPath></defs><g clip-path="url(#clip0)"><path d="M325.108 158.576 433.477 386.681 325.108 348.662 325.108 158.576Z" stroke="#000000" stroke-width="0.256053" stroke-linecap="round" stroke-linejoin="round" stroke-miterlimit="1.5" fill-rule="evenodd" transform="matrix(1 0 0 1.00003 -201.115 -153.967)"/><path d="M319.623 356.971 433.088 396.557 319.034 433.203 206.158 397.927 319.623 356.971Z" stroke="#000000" stroke-width="0.256053" stroke-linecap="round" stroke-linejoin="round" stroke-miterlimit="1.5" fill-rule="evenodd" transform="matrix(1 0 0 1.00003 -201.115 -153.967)"/><path d="M313.942 158.62 314.136 349.687 204.591 387.508 313.942 158.62Z" stroke="#808080" stroke-width="0.256053" stroke-linecap="round" stroke-linejoin="round" stroke-miterlimit="1.5" fill="#808080" fill-rule="evenodd" transform="matrix(1 0 0 1.00003 -201.115 -153.967)"/><path d="M355.245-18.249 355.245-12.0161 357.672-12.0161C359.42-12.0161 360.589-12.131 361.178-12.3608 361.767-12.5905 362.229-12.9501 362.564-13.4395 362.898-13.9289 363.066-14.4983 363.066-15.1475 363.066-15.9466 362.831-16.6059 362.362-17.1253 361.892-17.6447 361.298-17.9693 360.579-18.0991 360.049-18.199 358.985-18.249 357.387-18.249ZM287.14-18.249 287.14-12.6754 290.421-12.6754C292.549-12.6754 293.877-12.7653 294.406-12.9451 294.936-13.1249 295.35-13.4345 295.65-13.874 295.95-14.3135 296.1-14.8629 296.1-15.5221 296.1-16.2613 295.902-16.8581 295.508-17.3125 295.113-17.767 294.556-18.0542 293.837-18.1741 293.478-18.224 292.399-18.249 290.601-18.249ZM114.692-18.249 114.692-12.6754 117.973-12.6754C120.101-12.6754 121.429-12.7653 121.959-12.9451 122.488-13.1249 122.903-13.4345 123.202-13.874 123.502-14.3135 123.652-14.8629 123.652-15.5221 123.652-16.2613 123.455-16.8581 123.06-17.3125 122.666-17.767 122.109-18.0542 121.389-18.1741 121.03-18.224 119.951-18.249 118.153-18.249ZM314.552-18.5486C312.724-18.5486 311.25-17.9218 310.132-16.6683 309.013-15.4147 308.454-13.5244 308.454-10.9973 308.454-8.51019 309.028-6.62486 310.177-5.34134 311.325-4.05782 312.784-3.41606 314.552-3.41606 316.32-3.41606 317.77-4.05283 318.904-5.32636 320.038-6.59989 320.605-8.51019 320.605-11.0573 320.605-13.5744 320.053-15.4522 318.949-16.6908 317.845-17.9293 316.38-18.5486 314.552-18.5486ZM213.906-18.5486C212.078-18.5486 210.605-17.9218 209.486-16.6683 208.367-15.4147 207.808-13.5244 207.808-10.9973 207.808-8.51019 208.382-6.62486 209.531-5.34134 210.68-4.05782 212.138-3.41606 213.906-3.41606 215.674-3.41606 217.125-4.05283 218.259-5.32636 219.392-6.59989 219.959-8.51019 219.959-11.0573 219.959-13.5744 219.407-15.4522 218.303-16.6908 217.2-17.9293 215.734-18.5486 213.906-18.5486ZM34.0941-18.5486C32.2662-18.5486 30.7929-17.9218 29.6742-16.6683 28.5555-15.4147 27.9961-13.5244 27.9961-10.9973 27.9961-8.51019 28.5705-6.62486 29.7191-5.34134 30.8678-4.05782 32.3261-3.41606 34.0941-3.41606 35.8621-3.41606 37.3129-4.05283 38.4466-5.32636 39.5803-6.59989 40.1471-8.51019 40.1471-11.0573 40.1471-13.5744 39.5953-15.4522 38.4915-16.6908 37.3878-17.9293 35.922-18.5486 34.0941-18.5486ZM350.81-21.9647 357.927-21.9647C360.624-21.9647 362.382-21.8548 363.201-21.6351 364.459-21.3054 365.513-20.5888 366.362-19.485 367.211-18.3813 367.635-16.9555 367.635-15.2075 367.635-13.859 367.391-12.7253 366.901-11.8064 366.412-10.8875 365.79-10.1658 365.036-9.64139 364.282-9.11699 363.515-8.76989 362.736-8.60009 361.677-8.39033 360.144-8.28545 358.136-8.28545L355.245-8.28545 355.245 0 350.81 0ZM328.687-21.9647 333.122-21.9647 333.122-10.0684C333.122-8.18057 333.177-6.95698 333.287-6.39763 333.476-5.49866 333.928-4.77699 334.643-4.23262 335.357-3.68825 336.333-3.41606 337.572-3.41606 338.83-3.41606 339.779-3.67327 340.418-4.18767 341.058-4.70208 341.442-5.33385 341.572-6.08299 341.702-6.83213 341.767-8.07569 341.767-9.81369L341.767-21.9647 346.202-21.9647 346.202-10.428C346.202-7.79102 346.082-5.92817 345.842-4.83942 345.602-3.75068 345.16-2.83174 344.516-2.0826 343.872-1.33346 343.01-0.736651 341.932-0.292163 340.853 0.152324 339.445 0.374568 337.707 0.374568 335.609 0.374568 334.018 0.132347 332.935-0.352094 331.851-0.836536 330.994-1.46581 330.365-2.23992 329.736-3.01403 329.321-3.82559 329.121-4.67461 328.832-5.93316 328.687-7.79102 328.687-10.2482ZM282.705-21.9647 292.039-21.9647C294.386-21.9647 296.092-21.7674 297.156-21.3729 298.22-20.9783 299.071-20.2766 299.71-19.2678 300.35-18.259 300.669-17.1053 300.669-15.8068 300.669-14.1587 300.185-12.7977 299.216-11.724 298.247-10.6502 296.799-9.97351 294.871-9.69383 295.83-9.13447 296.621-8.52018 297.246-7.85095 297.87-7.18172 298.711-5.99309 299.77-4.28506L302.452 0 297.148 0 293.942-4.77949C292.803-6.48752 292.024-7.56378 291.605-8.00827 291.185-8.45276 290.741-8.75741 290.271-8.92222 289.802-9.08703 289.058-9.16943 288.039-9.16943L287.14-9.16943 287.14 0 282.705 0ZM228.116-21.9647 232.431-21.9647 241.421-7.29659 241.421-21.9647 245.541-21.9647 245.541 0 241.091 0 232.237-14.3235 232.237 0 228.116 0ZM196.024-21.9647 200.459-21.9647 200.459 0 196.024 0ZM174.948-21.9647 192.403-21.9647 192.403-18.249 185.9-18.249 185.9 0 181.465 0 181.465-18.249 174.948-18.249ZM132.305-21.9647 136.74-21.9647 136.74-10.0684C136.74-8.18057 136.795-6.95698 136.905-6.39763 137.095-5.49866 137.547-4.77699 138.261-4.23262 138.975-3.68825 139.951-3.41606 141.19-3.41606 142.449-3.41606 143.398-3.67327 144.037-4.18767 144.676-4.70208 145.061-5.33385 145.19-6.08299 145.32-6.83213 145.385-8.07569 145.385-9.81369L145.385-21.9647 149.82-21.9647 149.82-10.428C149.82-7.79102 149.7-5.92817 149.461-4.83942 149.221-3.75068 148.779-2.83174 148.135-2.0826 147.49-1.33346 146.629-0.736651 145.55-0.292163 144.471 0.152324 143.063 0.374568 141.325 0.374568 139.227 0.374568 137.637 0.132347 136.553-0.352094 135.469-0.836536 134.613-1.46581 133.983-2.23992 133.354-3.01403 132.94-3.82559 132.74-4.67461 132.45-5.93316 132.305-7.79102 132.305-10.2482ZM110.257-21.9647 119.592-21.9647C121.939-21.9647 123.644-21.7674 124.708-21.3729 125.772-20.9783 126.623-20.2766 127.263-19.2678 127.902-18.259 128.222-17.1053 128.222-15.8068 128.222-14.1587 127.737-12.7977 126.768-11.724 125.799-10.6502 124.351-9.97351 122.423-9.69383 123.382-9.13447 124.174-8.52018 124.798-7.85095 125.422-7.18172 126.264-5.99309 127.323-4.28506L130.005 0 124.701 0 121.494-4.77949C120.356-6.48752 119.577-7.56378 119.157-8.00827 118.738-8.45276 118.293-8.75741 117.824-8.92222 117.354-9.08703 116.61-9.16943 115.591-9.16943L114.692-9.16943 114.692 0 110.257 0ZM89.031-21.9647 106.486-21.9647 106.486-18.249 99.9834-18.249 99.9834 0 95.5485 0 95.5485-18.249 89.031-18.249ZM48.3043-21.9647 52.6194-21.9647 61.609-7.29659 61.609-21.9647 65.7292-21.9647 65.7292 0 61.2794 0 52.4246-14.3235 52.4246 0 48.3043 0ZM314.507-22.3393C317.743-22.3393 320.332-21.3354 322.275-19.3277 324.218-17.32 325.189-14.5283 325.189-10.9524 325.189-7.40646 324.225-4.63216 322.298-2.62947 320.37-0.626778 317.793 0.374568 314.567 0.374568 311.3 0.374568 308.703-0.621783 306.776-2.61449 304.848-4.60719 303.884-7.35153 303.884-10.8475 303.884-13.0849 304.219-14.9628 304.888-16.481 305.387-17.5997 306.069-18.6036 306.933-19.4925 307.797-20.3815 308.743-21.0407 309.772-21.4703 311.141-22.0496 312.719-22.3393 314.507-22.3393ZM268.899-22.3393C271.626-22.3393 273.756-21.7674 275.289-20.6237 276.823-19.48 277.809-17.8994 278.248-15.8817L273.844-15.0576C273.534-16.1364 272.952-16.9879 272.098-17.6122 271.244-18.2365 270.178-18.5486 268.899-18.5486 266.962-18.5486 265.421-17.9343 264.277-16.7057 263.133-15.4772 262.562-13.6543 262.562-11.237 262.562-8.63005 263.141-6.67481 264.3-5.37131 265.458-4.06781 266.977-3.41606 268.854-3.41606 269.783-3.41606 270.715-3.59835 271.649-3.96293 272.583-4.32751 273.384-4.7695 274.053-5.2889L274.053-8.07569 268.974-8.07569 268.974-11.7764 278.533-11.7764 278.533-3.02651C277.604-2.12755 276.258-1.33596 274.495-0.651749 272.732 0.0324627 270.947 0.374568 269.139 0.374568 266.842 0.374568 264.839-0.107376 263.131-1.07127 261.423-2.03515 260.139-3.41357 259.28-5.2065 258.421-6.99943 257.992-8.94968 257.992-11.0573 257.992-13.3446 258.471-15.3773 259.43-17.1552 260.389-18.9332 261.792-20.2966 263.64-21.2455 265.049-21.9747 266.802-22.3393 268.899-22.3393ZM213.861-22.3393C217.097-22.3393 219.687-21.3354 221.63-19.3277 223.572-17.32 224.544-14.5283 224.544-10.9524 224.544-7.40646 223.58-4.63216 221.652-2.62947 219.724-0.626778 217.147 0.374568 213.921 0.374568 210.655 0.374568 208.058-0.621783 206.13-2.61449 204.202-4.60719 203.238-7.35153 203.238-10.8475 203.238-13.0849 203.573-14.9628 204.242-16.481 204.742-17.5997 205.423-18.6036 206.287-19.4925 207.151-20.3815 208.098-21.0407 209.127-21.4703 210.495-22.0496 212.073-22.3393 213.861-22.3393ZM163.927-22.3393C166.614-22.3393 168.797-21.5452 170.475-19.957 171.474-19.0181 172.223-17.6696 172.722-15.9117L168.332-14.8629C168.072-16.0016 167.531-16.9005 166.707-17.5598 165.882-18.219 164.881-18.5486 163.703-18.5486 162.074-18.5486 160.753-17.9643 159.74-16.7956 158.726-15.627 158.219-13.7342 158.219-11.1172 158.219-8.34039 158.718-6.36267 159.717-5.18402 160.716-4.00538 162.014-3.41606 163.613-3.41606 164.791-3.41606 165.805-3.79063 166.654-4.53977 167.503-5.2889 168.112-6.46755 168.482-8.07569L172.782-6.71226C172.123-4.31503 171.027-2.53458 169.493-1.37092 167.96-0.207261 166.015 0.374568 163.658 0.374568 160.741 0.374568 158.344-0.621783 156.466-2.61449 154.588-4.60719 153.649-7.33155 153.649-10.7876 153.649-14.4434 154.593-17.2826 156.481-19.3052 158.369-21.3279 160.851-22.3393 163.927-22.3393ZM78.0385-22.3393C80.7953-22.3393 82.8704-21.7349 84.2638-20.5263 85.6572-19.3177 86.3888-17.7046 86.4588-15.6869L82.0239-15.4921C81.8341-16.6208 81.427-17.4324 80.8028-17.9268 80.1785-18.4213 79.2421-18.6685 77.9935-18.6685 76.705-18.6685 75.6962-18.4038 74.967-17.8744 74.4975-17.5348 74.2628-17.0803 74.2628-16.511 74.2628-15.9916 74.4826-15.5471 74.9221-15.1775 75.4814-14.708 76.8398-14.2186 78.9974-13.7092 81.1549-13.1998 82.7505-12.6729 83.7843-12.1285 84.8181-11.5841 85.6272-10.84 86.2115-9.89609 86.7959-8.95218 87.088-7.78603 87.088-6.39763 87.088-5.13908 86.7384-3.96044 86.0392-2.8617 85.34-1.76297 84.3512-0.946409 83.0726-0.412025 81.7941 0.122359 80.201 0.389551 78.2932 0.389551 75.5164 0.389551 73.3838-0.252209 71.8955-1.53573 70.4072-2.81925 69.5183-4.68959 69.2286-7.14676L73.5436-7.56628C73.8033-6.11795 74.3302-5.05417 75.1243-4.37496 75.9184-3.69574 76.9897-3.35613 78.3381-3.35613 79.7665-3.35613 80.8427-3.65828 81.5669-4.26259 82.2911-4.86689 82.6531-5.57358 82.6531-6.38264 82.6531-6.90204 82.5008-7.34403 82.1962-7.70861 81.8915-8.07319 81.3596-8.39033 80.6005-8.66002 80.0811-8.83981 78.8975-9.15944 77.0496-9.61891 74.6723-10.2082 73.0043-10.9324 72.0454-11.7914 70.6969-13 70.0227-14.4733 70.0227-16.2113 70.0227-17.33 70.3398-18.3763 70.9741-19.3502 71.6084-20.3241 72.5223-21.0657 73.7159-21.5751 74.9096-22.0845 76.3504-22.3393 78.0385-22.3393ZM34.0492-22.3393C37.2854-22.3393 39.8749-21.3354 41.8177-19.3277 43.7605-17.32 44.7318-14.5283 44.7318-10.9524 44.7318-7.40646 43.768-4.63216 41.8402-2.62947 39.9124-0.626778 37.3354 0.374568 34.1091 0.374568 30.8429 0.374568 28.2459-0.621783 26.3181-2.61449 24.3903-4.60719 23.4264-7.35153 23.4264-10.8475 23.4264-13.0849 23.761-14.9628 24.4302-16.481 24.9297-17.5997 25.6114-18.6036 26.4754-19.4925 27.3394-20.3815 28.2858-21.0407 29.3146-21.4703 30.683-22.0496 32.2612-22.3393 34.0492-22.3393ZM11.7315-22.3393C14.4184-22.3393 16.6009-21.5452 18.2789-19.957 19.2778-19.0181 20.0269-17.6696 20.5263-15.9117L16.1364-14.8629C15.8767-16.0016 15.3348-16.9005 14.5108-17.5598 13.6867-18.219 12.6854-18.5486 11.5067-18.5486 9.87862-18.5486 8.55764-17.9643 7.54381-16.7956 6.52998-15.627 6.02306-13.7342 6.02306-11.1172 6.02306-8.34039 6.52249-6.36267 7.52134-5.18402 8.52018-4.00538 9.81869-3.41606 11.4168-3.41606 12.5955-3.41606 13.6093-3.79063 14.4583-4.53977 15.3074-5.2889 15.9167-6.46755 16.2862-8.07569L20.5863-6.71226C19.927-4.31503 18.8308-2.53458 17.2976-1.37092 15.7643-0.207261 13.8191 0.374568 11.4618 0.374568 8.54516 0.374568 6.14792-0.621783 4.27009-2.61449 2.39225-4.60719 1.45333-7.33155 1.45333-10.7876 1.45333-14.4434 2.39724-17.2826 4.28506-19.3052 6.17289-21.3279 8.65503-22.3393 11.7315-22.3393Z" stroke="#808080" stroke-width="0.190245" stroke-linejoin="round" stroke-miterlimit="2" fill="#FFFFFF" fill-rule="evenodd" transform="matrix(1 0 0 1.59056 245.266 232.027)"/><text fill="#000000" fill-opacity="0" font-family="Arial,Arial_MSFontService,sans-serif" font-size="22.7288" x="1.45333" y="-2.45155">CONSTRUCTION GROUP</text><text font-family="Arial,Arial_MSFontService,sans-serif" font-weight="700" font-size="50" transform="matrix(2.81354 0 0 2.04061 198.383 183)">W<tspan font-size="50" x="44.43" y="0">A</tspan><tspan font-size="50" x="80.54" y="0">K</tspan><tspan font-size="50" x="116.54" y="0">E</tspan></text></g></svg>